#!OML:ASF F:\VICON\USERDATA\INSTALL\Justin_Nancy\Justin_Nancy.ASF
:FULLY-SPECIFIED
:DEGREES
32
root 0.946906 17.4357 -8.17355 -4.21773 -1.40452 7.00552
lowerback 5.5856 -1.99061 -5.75852
upperback -1.67835 -3.03227 1.22386
thorax -4.5203 -1.3229 4.78708
lowerneck -19.6916 -2.70058 -8.75164
upperneck 21.2974 -2.12075 4.21301
head 10.2043 -1.19707 2.64073
rclavicle 1.53064e-014 -7.95139e-015
rhumerus -75.9442 2.18097 -90.0468
rradius 121.514
rwrist -12.761
rhand -16.5877 30.8563
rfingers 7.12502
rthumb 9.63314 1.09658
lclavicle 1.53064e-014 -7.95139e-015
lhumerus -42.6194 -15.9123 92.562
lradius 123.64
lwrist 31.0508
lhand -12.7322 4.2684
lfingers 7.12502
lthumb 13.3513 33.8206
rfemur -27.8578 -3.34189 14.7833
rtibia 15.1964
rfoot 26.4846 -8.19502
rtoes 5.2918
lfemur 16.6699 -9.74866 -30.8038
ltibia 44.0253
lfoot 4.16315 -4.54186
ltoes -17.8856
33
root 0.911738 17.3672 -7.68006 -4.82716 -1.41532 6.81755
lowerback 5.93759 -1.65053 -5.46852
upperback -1.36896 -2.57171 1.16372
thorax -4.46611 -1.11189 4.52945
lowerneck -19.9243 -3.07283 -8.83764
upperneck 20.9728 -2.62456 4.371
head 10.1711 -1.40888 2.63251
rclavicle 1.76918e-014 6.36111e-015
rhumerus -75.3562 1.36665 -89.0114
rradius 121.154
rwrist -12.0922
rhand -17.3826 31.8795
rfingers 7.12502
rthumb 8.86617 2.08579
lclavicle 1.76918e-014 6.36111e-015
lhumerus -42.7741 -16.4761 92.7543
lradius 122.662
lwrist 30.3302
lhand -14.1805 5.42558
lfingers 7.12502
lthumb 11.9551 35.0642
rfemur -27.5256 -4.16039 15.4958
rtibia 17.6413
rfoot 26.5528 -3.07991
rtoes 17.4554
lfemur 15.6901 -9.32317 -30.2963
ltibia 47.6468
lfoot 4.26064 -4.16386
ltoes -19.2296
34
root 0.880503 17.2871 -7.18314 -5.44737 -1.32631 6.33632
lowerback 6.23276 -1.35215 -4.73927
upperback -1.06997 -2.12974 1.06892
thorax -4.39886 -0.921263 3.98383
lowerneck -19.9325 -3.3552 -8.91758
upperneck 20.636 -3.07065 4.71272
head 10.0912 -1.57446 2.69806
rclavicle 4.67144e-015 6.36111e-015
rhumerus -74.6903 0.468241 -88.1838
rradius 120.543
rwrist -11.6902
rhand -18.3131 32.4256
rfingers 7.12502
rthumb 7.96819 2.59576
lclavicle 4.67144e-015 6.36111e-015
lhumerus -43.2361 -16.8982 92.9069
lradius 121.722
lwrist 29.5645
lhand -14.7233 6.45609
lfingers 7.12502
lthumb 11.4317 36.1244
rfemur -26.8787 -4.88509 16.3833
rtibia 20.1522
rfoot 20.9578 2.68556
rtoes 16.8885
lfemur 14.6571 -8.90401 -29.4011
ltibia 51.3558
lfoot 3.57706 -3.72715
ltoes -17.2356
35
root 0.845134 17.2128 -6.69183 -6.03054 -1.13481 5.65621
lowerback 6.68185 -1.11327 -3.92515
upperback -0.861727 -1.75972 1.10584
thorax -4.49381 -0.758953 3.53862
lowerneck -20.0463 -3.65344 -9.00242
upperneck 20.3998 -3.49262 4.91345
head 10.0653 -1.74696 2.71775
rclavicle -2.0773e-014 -6.36111e-015
rhumerus -73.7276 -0.18699 -87.3519
rradius 119.415
rwrist -11.4275
rhand -19.6464 32.9409
rfingers 7.12502
rthumb 6.68115 3.0663
lclavicle -2.0773e-014 -6.36111e-015
lhumerus -43.9046 -16.9391 93.2521
lradius 120.54
lwrist 28.8074
lhand -15.138 6.45591
lfingers 7.12502
lthumb 11.0316 36.146
rfemur -26.211 -4.92398 17.1467
rtibia 22.9636
rfoot 15.9816 5.49218
rtoes 10.3753
lfemur 13.5008 -8.51472 -28.1416
ltibia 55.0739
lfoot 2.70073 -2.93552
ltoes -14.4576
36
root 0.804569 17.1283 -6.21318 -6.62948 -0.989293 4.92151
lowerback 7.24829 -0.924345 -3.2604
upperback -0.733408 -1.46206 1.25395
thorax -4.71761 -0.623059 3.30143
lowerneck -20.1549 -3.84357 -8.89691
upperneck 20.3967 -3.75625 4.81573
head 10.1007 -1.87005 2.62503
rclavicle 1.35174e-014 -7.15625e-015
rhumerus -72.5842 -0.4548 -86.5711
rradius 117.97
rwrist -11.5524
rhand -21.0726 32.9164
rfingers 7.12502
rthumb 5.30421 3.00276
lclavicle 1.35174e-014 -7.15625e-015
lhumerus -44.525 -16.5105 93.6835
lradius 118.823
lwrist 28.0919
lhand -15.2641 5.16768
lfingers 7.12502
lthumb 10.91 34.8642
rfemur -25.5462 -4.17913 17.7895
rtibia 26.0484
rfoot 11.2077 3.72836
rtoes 12.6914
lfemur 12.3499 -8.16842 -26.7735
ltibia 58.7473
lfoot 1.83207 -1.8639
ltoes -14.1533
37
root 0.761718 17.0473 -5.74463 -7.1307 -0.85523 3.90808
lowerback 7.77503 -0.770089 -2.39611
upperback -0.649126 -1.17588 1.53863
thorax -4.96013 -0.496456 3.09073
lowerneck -20.1564 -3.94811 -8.73346
upperneck 20.4335 -3.90947 4.63422
head 10.1186 -1.94949 2.51036
rclavicle -2.14687e-014 -1.59028e-015
rhumerus -71.331 -0.58448 -85.8464
rradius 116.379
rwrist -12.0382
rhand -22.0933 32.9029
rfingers 7.12502
rthumb 4.31863 2.96697
lclavicle -2.14687e-014 -1.59028e-015
lhumerus -45.0484 -15.7484 94.1477
lradius 117.003
lwrist 27.3912
lhand -14.6717 4.80013
lfingers 7.12502
lthumb 11.4814 34.4657
rfemur -24.7412 -3.1622 18.8118
rtibia 29.0897
rfoot 7.10009 2.79071
rtoes 8.04906
lfemur 10.8879 -7.64113 -24.9177
ltibia 62.4188
lfoot 1.191 -0.693878
ltoes -17.7352
38
root 0.7111 16.982 -5.28486 -7.54638 -0.647651 2.84158
lowerback 8.32996 -0.618801 -1.57557
upperback -0.548248 -0.887179 1.82426
thorax -5.1956 -0.369148 2.90177
lowerneck -20.2711 -4.1821 -8.56572
upperneck 20.3723 -4.24438 4.50508
head 10.1357 -2.10335 2.38422
rclavicle -1.36167e-014 -1.59028e-015
rhumerus -69.9197 -0.737949 -85.2682
rradius 114.611
rwrist -12.5256
rhand -23.1871 34.2089
rfingers 7.12502
rthumb 3.26244 4.25415
lclavicle -1.36167e-014 -1.59028e-015
lhumerus -45.5695 -14.8756 94.5439
lradius 115.249
lwrist 26.9032
lhand -13.8685 5.3268
lfingers 7.12502
lthumb 12.2559 34.9477
rfemur -23.905 -2.00668 20.0391
rtibia 32.0052
rfoot 3.34066 0.68557
rtoes 4.13576
lfemur 9.01019 -7.05691 -22.8311
ltibia 66.0483
lfoot 0.918823 0.517214
ltoes -21.7366
39
root 0.659308 16.9278 -4.83513 -7.9362 -0.499926 1.5796
lowerback 9.07573 -0.423368 -0.549843
upperback -0.513571 -0.505402 2.09723
thorax -5.61021 -0.200995 2.57139
lowerneck -20.4684 -4.4965 -8.46048
upperneck 20.5231 -4.72199 4.57724
head 10.26 -2.30449 2.31864
rclavicle 6.26172e-015 1.74931e-014
rhumerus -68.1657 -1.01901 -84.7889
rradius 112.498
rwrist -12.8519
rhand -23.6285 32.9694
rfingers 7.12502
rthumb 2.83615 3.00851
lclavicle 6.26172e-015 1.74931e-014
lhumerus -46.0673 -14.0047 94.9694
lradius 113.325
lwrist 26.7059
lhand -13.6439 5.9042
lfingers 7.12502
lthumb 12.4724 35.512
rfemur -23.0603 -0.897602 21.6176
rtibia 34.6043
rfoot 0.515931 -1.80775
rtoes 1.6133
lfemur 6.87146 -6.48022 -20.4946
ltibia 69.5651
lfoot -0.012063 1.3821
ltoes -22.5913
40
root 0.61911 16.8912 -4.40331 -8.15958 -0.36051 0.444555
lowerback 9.80978 -0.261301 0.420911
upperback -0.569697 -0.156664 2.31158
thorax -6.10391 -0.0516481 2.20946
lowerneck -20.5409 -4.76845 -8.36263
upperneck 20.6082 -5.18303 4.78367
head 10.3404 -2.48287 2.30486
rclavicle 6.4605e-015 -7.15625e-015
rhumerus -66.1164 -1.20506 -84.4611
rradius 110.24
rwrist -12.9439
rhand -23.3591 31.1953
rfingers 7.12502
rthumb 3.09632 1.23806
lclavicle 6.4605e-015 -7.15625e-015
lhumerus -46.6331 -12.8076 95.3824
lradius 111.319
lwrist 27.0539
lhand -14.0756 6.57543
lfingers 7.12502
lthumb 12.0562 36.2081
rfemur -22.3069 -0.148038 23.0667
rtibia 36.804
rfoot -1.52297 -3.88263
rtoes 2.78764
lfemur 4.41213 -5.99293 -18.4711
ltibia 72.8574
lfoot -1.50001 2.05866
ltoes -20.1837
41
root 0.58972 16.8754 -3.99052 -7.94543 -0.230952 -1.15952
lowerback 10.0869 -0.17732 1.88693
upperback -0.67792 0.167445 2.72032
thorax -6.38591 0.0669526 1.76748
lowerneck -20.8262 -5.06931 -8.46231
upperneck 20.8755 -5.6313 5.07318
head 10.5358 -2.65788 2.35252
rclavicle -8.49804e-015 3.97569e-015
rhumerus -63.7795 -1.15201 -84.113
rradius 107.784
rwrist -12.4249
rhand -23.471 30.4054
rfingers 7.12502
rthumb 2.98824 0.446575
lclavicle -8.49804e-015 3.97569e-015
lhumerus -47.2488 -11.2721 95.8323
lradius 109.159
lwrist 27.4792
lhand -16.0698 7.37773
lfingers 7.12502
lthumb 10.1328 37.1137
rfemur -21.8922 0.454382 24.991
rtibia 38.567
rfoot -2.95448 -5.58663
rtoes 6.04745
lfemur 1.26636 -5.62179 -15.9889
ltibia 75.8993
lfoot -2.60671 2.3179
ltoes -18.1275
42
root 0.560796 16.882 -3.58695 -7.49363 -0.0737883 -2.70344
lowerback 10.0588 -0.15747 3.18083
upperback -0.905057 0.39067 3.18967
thorax -6.61322 0.138623 1.50196
lowerneck -20.8426 -5.30206 -9.07513
upperneck 21.1761 -5.97995 5.87903
head 10.7247 -2.76992 2.69148
rclavicle 1.93815e-015 1.51076e-014
rhumerus -61.466 -0.664515 -83.8181
rradius 105.26
rwrist -11.1341
rhand -24.097 30.5275
rfingers 7.12502
rthumb 2.38366 0.561037
lclavicle 1.93815e-015 1.51076e-014
lhumerus -47.7077 -9.41214 96.1644
lradius 106.645
lwrist 28.3124
lhand -15.4431 7.5881
lfingers 7.12502
lthumb 10.7374 37.2937
rfemur -21.7364 1.12426 26.8729
rtibia 40.032
rfoot -4.10861 -7.01354
rtoes 5.07771
lfemur -2.49335 -5.29099 -13.6645
ltibia 78.5478
lfoot -3.07361 2.16157
ltoes -15.7731
